<?xml version="1.0" encoding="utf-8"?>
<!-- Generator: Adobe Illustrator 27.5.0, SVG Export Plug-In . SVG Version: 6.00 Build 0)  -->
<svg version="1.1" xmlns="http://www.w3.org/2000/svg" xmlns:xlink="http://www.w3.org/1999/xlink" x="0px" y="0px"
	 viewBox="0 0 500 500" style="enable-background:new 0 0 500 500;" xml:space="preserve">
<g id="Background_Simple">
	<g>
		<path style="fill:#C6FF00;" d="M165.31,113.336c0,0-60.683,35.024-88.691,84.976c-28.008,49.953-21.23,111.525,20.059,155.062
			c41.289,43.537,113.679,33.022,176.66,58.325c62.981,25.303,129.836,15.197,154.375-48.118
			c24.539-63.315-20.522-83.636-32.951-154.395C382.333,138.427,309.105,38.19,165.31,113.336z"/>
		<path style="opacity:0.7;fill:#FFFFFF;" d="M165.31,113.336c0,0-60.683,35.024-88.691,84.976
			c-28.008,49.953-21.23,111.525,20.059,155.062c41.289,43.537,113.679,33.022,176.66,58.325
			c62.981,25.303,129.836,15.197,154.375-48.118c24.539-63.315-20.522-83.636-32.951-154.395
			C382.333,138.427,309.105,38.19,165.31,113.336z"/>
	</g>
</g>
<g id="Pictures">
	<g>
		<rect x="155.258" y="134.909" style="fill:#B5B5B5;" width="60.503" height="80.671"/>
		<rect x="160.804" y="142.304" style="fill:#C6FF00;" width="49.411" height="65.881"/>
		<rect x="160.804" y="142.304" style="opacity:0.5;fill:#FFFFFF;" width="49.411" height="65.881"/>
	</g>
	<g>
		<rect x="88.704" y="181.967" style="fill:#B5B5B5;" width="51.428" height="68.57"/>
		<rect x="93.418" y="188.253" style="fill:#C6FF00;" width="41.999" height="55.999"/>
		<rect x="93.418" y="188.253" style="opacity:0.5;fill:#FFFFFF;" width="41.999" height="55.999"/>
	</g>
</g>
<g id="Window">
	<g>
		<path style="fill:#B5B5B5;" d="M300.684,337.645h126.525V134.79H300.684V337.645z M366.701,288.871h55.528v-4.918h-55.528v-45.277
			h55.528v-4.918h-55.528v-44.33h55.528v-4.918h-55.528v-44.804h55.887v193.02h-55.887V288.871z M305.304,139.708h56.776v44.804
			h-56.776V139.708z M305.304,189.429h56.776v44.33h-56.776V189.429z M305.304,238.676h56.776v45.277h-56.776V238.676z
			 M305.304,288.871h56.776v43.857h-56.776V288.871z"/>
		<path style="fill:#B5B5B5;" d="M426.779,130.144c-1.418-15.726-8.625-30.291-20.292-41.014
			c-11.742-10.791-26.996-16.733-42.954-16.733c-15.958,0-31.213,5.942-42.955,16.733c-11.668,10.723-18.874,25.288-20.292,41.014
			l-0.299,3.314h127.091L426.779,130.144z M306.736,127.376c1.726-11.715,6.888-22.152,14.396-30.35l35.675,30.35H306.736z
			 M359.88,122.004l-34.39-29.257c9.28-8.172,21.234-13.332,34.39-14.143V122.004z M365.962,78.533
			c12.421,0.508,23.822,4.892,32.986,12.036l-32.986,30.987V78.533z M368.649,127.376l34.909-32.793
			c8.794,8.519,14.868,19.88,16.771,32.793H368.649z"/>
	</g>
</g>
<g id="Character">
	<g>
		<path id="XMLID_94_" style="fill:#263238;stroke:#263238;stroke-linecap:round;stroke-linejoin:round;stroke-miterlimit:10;" d="
			M253.911,198.305c0,0-19.169,1.139-29.418,0.949c-10.249-0.19-17.651-2.657-20.308,1.898c-2.657,4.555-3.037,2.657-7.402,10.818
			c-4.365,8.161-45.112,45.476-45.952,51.36c-1.326,9.283,8.278,15.91,13.592,17.239c5.314,1.329,34.146-27.516,34.146-27.516
			s-2.925,46.98-3.874,66.339c-0.949,19.359-1.518,76.107-1.518,76.107h98.312c0,0-1.898-45.93-1.708-55.23
			s11.008-55.04,11.008-55.04s-0.759,18.03,1.708,25.242c2.467,7.212,18.859,23.905,28.348,20.488
			c9.49-3.416,4.675-17.831,3.537-27.89c-1.139-10.059-1.139-39.097-1.139-58.266s1.139-22.965-5.504-25.242
			c-6.643-2.277-19.549-4.935-29.418-8.73c-9.869-3.796-25.242-8.161-27.9-9.11C267.766,200.772,253.911,198.305,253.911,198.305z"
			/>
		
			<line style="fill:none;stroke:#263238;stroke-linecap:round;stroke-linejoin:round;stroke-miterlimit:10;" x1="75.767" y1="395.499" x2="424.233" y2="395.499"/>
		<path id="XMLID_93_" style="fill:#C6FF00;stroke:#263238;stroke-linecap:round;stroke-linejoin:round;stroke-miterlimit:10;" d="
			M259.794,192.421c0,0-6.263-0.38-11.577,5.694c-5.314,6.073-18.03,26.951-19.928,29.608c-1.898,2.657,1.708,1.329,5.314,0.949
			c3.606-0.38,14.424-1.898,16.891-0.949c2.467,0.949,12.716,2.088,16.891,6.643c4.176,4.555,13.475,14.804,14.804,12.147
			c1.329-2.657,4.555-14.804,6.073-22.965c1.518-8.161,2.657-16.322-3.606-24.483C278.394,190.903,259.794,192.421,259.794,192.421z
			"/>
		<g>
			<g>
				<defs>
					<path id="XMLID_91_" d="M258.656,183.311c0,0-0.19,10.628-6.643,22.775c-6.453,12.147-3.416,35.112-0.19,33.973
						c3.226-1.139,22.775-14.045,25.432-21.447c2.657-7.402,2.088-18.41,6.833-30.177c4.745-11.767,7.781-18.41,7.781-18.41
						S263.59,182.932,258.656,183.311z"/>
				</defs>
				<use xlink:href="#XMLID_91_"  style="overflow:visible;fill:#D9D9D9;"/>
				<clipPath id="XMLID_00000177470624520076995910000007236592743115285682_">
					<use xlink:href="#XMLID_91_"  style="overflow:visible;"/>
				</clipPath>
				<path style="opacity:0.15;clip-path:url(#XMLID_00000177470624520076995910000007236592743115285682_);" d="M258.656,183.311
					c0,0-0.096,5.205-2.361,12.49c1.672,0.575,4.34,1.068,8.625,1.068c10.278,0,11.341-1.772,11.341-1.772
					s-2.126,15.24-4.607,22.683c-1.437,4.312-3.466,9.09-4.921,12.355c4.894-3.924,9.352-8.258,10.523-11.523
					c2.657-7.402,2.088-18.41,6.833-30.177c4.745-11.767,7.781-18.41,7.781-18.41S263.59,182.932,258.656,183.311z"/>
				
					<use xlink:href="#XMLID_91_"  style="overflow:visible;fill:none;stroke:#263238;stroke-linecap:round;stroke-linejoin:round;stroke-miterlimit:10;"/>
			</g>
			<g>
				<defs>
					<path id="XMLID_79_" d="M270.992,101.891c0,0-10.439,6.263-16.512,18.6c-6.073,12.336-5.694,28.659-5.694,28.659
						s0.569,18.22-0.38,25.432c-0.949,7.212,7.971,12.337,12.147,12.526c4.175,0.19,17.081-8.351,23.155-10.818
						c6.073-2.467,7.781-2.847,13.665-8.73c5.883-5.884,15.943-23.724,16.512-33.783c0.569-10.059-1.139-21.826-9.869-28.848
						C295.285,97.905,283.518,95.628,270.992,101.891z"/>
				</defs>
				<use xlink:href="#XMLID_79_"  style="overflow:visible;fill:#D9D9D9;"/>
				<clipPath id="XMLID_00000132073846474000699030000016305032423888753839_">
					<use xlink:href="#XMLID_79_"  style="overflow:visible;"/>
				</clipPath>
				<path style="opacity:0.15;clip-path:url(#XMLID_00000132073846474000699030000016305032423888753839_);" d="M256.303,185.874
					c1.574,0.749,3.094,1.181,4.25,1.234c4.175,0.19,17.081-8.351,23.155-10.818c6.073-2.467,7.781-2.847,13.665-8.73
					c5.884-5.883,15.943-23.724,16.512-33.783c0.309-5.455-0.065-11.407-1.852-16.837c-3.402,1.266-8.094,3.776-12.027,8.692
					c-7.088,8.861,0,15.949-6.025,25.518c-6.025,9.569-15.595,14.886-22.683,22.329
					C264.353,180.771,265.906,185.678,256.303,185.874z"/>
				
					<use xlink:href="#XMLID_79_"  style="overflow:visible;fill:none;stroke:#263238;stroke-linecap:round;stroke-linejoin:round;stroke-miterlimit:10;"/>
			</g>
			<g id="XMLID_89_">
				<path id="XMLID_80_" style="fill:none;stroke:#263238;stroke-linecap:round;stroke-linejoin:round;stroke-miterlimit:10;" d="
					M263.59,143.93c0,0-2.657,1.329-2.657,2.847c0,1.518,1.898,1.898,1.898,1.898"/>
				<path id="XMLID_82_" style="fill:none;stroke:#263238;stroke-linecap:round;stroke-linejoin:round;stroke-miterlimit:10;" d="
					M264.919,144.499c0,0-2.657,3.037-1.329,4.935c1.329,1.898,5.314,0.569,5.314,0.569s-0.19,0.949,2.088,1.139
					c2.277,0.19,3.606-2.657,2.277-4.555c-1.329-1.898-1.329-1.898-1.329-1.898"/>
				
					<path id="XMLID_81_" style="fill:#263238;stroke:#263238;stroke-linecap:round;stroke-linejoin:round;stroke-miterlimit:10;" d="
					M266.866,134.169c-0.454,1.372-1.354,2.309-2.01,2.092c-0.656-0.217-0.82-1.506-0.366-2.878c0.454-1.372,1.354-2.309,2.01-2.092
					C267.156,131.508,267.32,132.797,266.866,134.169z"/>
				<path id="XMLID_84_" style="fill:none;stroke:#263238;stroke-linecap:round;stroke-linejoin:round;stroke-miterlimit:10;" d="
					M267.196,131.783c0,0-1.139-2.657-3.796-1.518c-2.657,1.139-3.986,7.781-1.139,9.11"/>
				
					<path id="XMLID_87_" style="fill:#263238;stroke:#263238;stroke-linecap:round;stroke-linejoin:round;stroke-miterlimit:10;" d="
					M282.809,138.724c-0.454,1.372-1.354,2.309-2.01,2.092c-0.656-0.217-0.82-1.505-0.366-2.878c0.454-1.372,1.354-2.309,2.01-2.091
					C283.098,136.063,283.263,137.352,282.809,138.724z"/>
				<path id="XMLID_86_" style="fill:none;stroke:#263238;stroke-linecap:round;stroke-linejoin:round;stroke-miterlimit:10;" d="
					M283.139,136.338c0,0-1.139-2.657-3.796-1.518c-2.657,1.139-3.986,7.782-1.139,9.11"/>
				<path id="XMLID_88_" style="fill:none;stroke:#263238;stroke-linecap:round;stroke-linejoin:round;stroke-miterlimit:10;" d="
					M258.845,161.296c-1.139-0.569-6.073-3.606-5.884-5.504c0.19-1.898,2.088-4.555,3.986-2.847
					c1.898,1.708,6.833,5.314,6.833,5.314s2.847,3.416,8.161,0.949"/>
				
					<path id="XMLID_85_" style="fill:none;stroke:#263238;stroke-width:4;stroke-linecap:round;stroke-linejoin:round;stroke-miterlimit:10;" d="
					M259.225,125.615c0,0,2.467-4.745,5.883-5.124c3.416-0.38,5.124,3.416,5.124,3.986"/>
				
					<path id="XMLID_90_" style="fill:none;stroke:#263238;stroke-width:4;stroke-linecap:round;stroke-linejoin:round;stroke-miterlimit:10;" d="
					M278.204,128.082c0,0,3.416,4.175,11.008,4.555"/>
			</g>
			<path id="XMLID_83_" style="fill:#263238;stroke:#263238;stroke-linecap:round;stroke-linejoin:round;stroke-miterlimit:10;" d="
				M313.885,133.776c0.569-10.059-1.139-21.826-9.869-28.849c-8.73-7.022-20.497-9.3-33.024-3.037c0,0-0.918,0.553-2.362,1.644
				c1.869,2.468,6.865,7.781,15.837,8.794c11.767,1.328,15.563-0.949,18.979,1.518c3.416,2.467,4.365,9.3,1.898,11.577
				c-2.467,2.278-8.351,2.088-8.73,5.504c-0.38,3.416,5.504,11.577,4.745,14.234c-0.759,2.657-2.277,4.365-1.139,5.504
				c1.139,1.139,4.365-0.38,5.124-0.759c0.613-0.307,0.358,4.218-1.863,9.57C308.475,151.589,313.488,140.792,313.885,133.776z"/>
			<path id="XMLID_77_" style="fill:#D9D9D9;stroke:#263238;stroke-linecap:round;stroke-linejoin:round;stroke-miterlimit:10;" d="
				M297.943,154.653c0,0,4.745-6.263,8.161-6.263c3.416,0,5.124,5.504,3.226,10.628c-1.898,5.124-5.314,7.782-9.49,8.161
				c-4.175,0.38-4.555-1.708-4.175-3.037"/>
		</g>
		<g>
			<g>
				<defs>
					<path id="XMLID_99_" d="M295.665,269.477c0,0,5.314,13.475,9.11,18.03c3.796,4.555,14.045,11.957,22.585,17.651
						c8.541,5.694,10.249,18.41,8.92,23.155c-1.329,4.745-5.314,8.541-14.234,6.073c-8.92-2.467-16.132-13.096-23.534-24.104
						c-7.402-11.008-12.336-19.169-12.906-19.738C285.037,289.975,295.665,269.477,295.665,269.477z"/>
				</defs>
				<use xlink:href="#XMLID_99_"  style="overflow:visible;fill:#D9D9D9;"/>
				<clipPath id="XMLID_00000037693064756339478860000012604766165931799684_">
					<use xlink:href="#XMLID_99_"  style="overflow:visible;"/>
				</clipPath>
				<path style="opacity:0.15;clip-path:url(#XMLID_00000037693064756339478860000012604766165931799684_);" d="M336.281,328.313
					c1.329-4.745-0.38-17.461-8.92-23.155c-8.541-5.694-18.789-13.096-22.585-17.651c-3.796-4.555-9.11-18.03-9.11-18.03
					s-10.628,20.498-10.059,21.067c0.569,0.569,5.504,8.73,12.906,19.738c0.086,0.128,0.172,0.256,0.258,0.384l5.135-7.824
					c0,0,27.645,21.265,28.354,26.227c0.214,1.501,0.167,3.195,0,4.83C334.379,332.647,335.642,330.594,336.281,328.313z"/>
				
					<use xlink:href="#XMLID_99_"  style="overflow:visible;fill:none;stroke:#263238;stroke-linecap:round;stroke-linejoin:round;stroke-miterlimit:10;"/>
			</g>
			<g id="XMLID_140_">
				<g>
					<defs>
						<path id="XMLID_119_" d="M301.362,416.023c0,0,4.943,1.81,15.191-2.17c14.584-5.664,37.858-24.836,37.858-24.836
							s-15.191,3.376-34,0c-18.808-3.376-28.936-8.44-28.936-8.44l-19.773,28.212L301.362,416.023z"/>
					</defs>
					<use xlink:href="#XMLID_119_"  style="overflow:visible;fill:#FFFFFF;"/>
					<clipPath id="XMLID_00000075873039923867607390000016098968883606660274_">
						<use xlink:href="#XMLID_119_"  style="overflow:visible;"/>
					</clipPath>
					<path id="XMLID_9_" style="clip-path:url(#XMLID_00000075873039923867607390000016098968883606660274_);fill:#C6FF00;" d="
						M301.362,416.023c0,0,4.943,1.81,15.191-2.17c14.584-5.664,37.858-24.836,37.858-24.836s-15.191,3.376-34,0
						c-18.808-3.376-28.936-8.44-28.936-8.44l-19.773,28.212L301.362,416.023z"/>
					
						<path id="XMLID_10_" style="opacity:0.5;clip-path:url(#XMLID_00000075873039923867607390000016098968883606660274_);fill:#FFFFFF;" d="
						M301.362,416.023c0,0,4.943,1.81,15.191-2.17c14.584-5.664,37.858-24.836,37.858-24.836s-15.191,3.376-34,0
						c-18.808-3.376-28.936-8.44-28.936-8.44l-19.773,28.212L301.362,416.023z"/>
					
						<use xlink:href="#XMLID_119_"  style="overflow:visible;fill:none;stroke:#263238;stroke-linecap:round;stroke-linejoin:round;stroke-miterlimit:10;"/>
				</g>
				<g id="XMLID_134_">
					
						<line id="XMLID_135_" style="fill:#FFFFFF;stroke:#263238;stroke-linecap:round;stroke-linejoin:round;stroke-miterlimit:10;" x1="274.617" y1="405.88" x2="312.699" y2="412.274"/>
					
						<line id="XMLID_136_" style="fill:#FFFFFF;stroke:#263238;stroke-linecap:round;stroke-linejoin:round;stroke-miterlimit:10;" x1="317.98" y1="408.938" x2="280.176" y2="401.989"/>
					
						<line id="XMLID_137_" style="fill:#FFFFFF;stroke:#263238;stroke-linecap:round;stroke-linejoin:round;stroke-miterlimit:10;" x1="321.872" y1="405.602" x2="289.349" y2="399.765"/>
					
						<line id="XMLID_138_" style="fill:#FFFFFF;stroke:#263238;stroke-linecap:round;stroke-linejoin:round;stroke-miterlimit:10;" x1="327.431" y1="401.433" x2="296.577" y2="395.595"/>
					
						<line id="XMLID_139_" style="fill:#FFFFFF;stroke:#263238;stroke-linecap:round;stroke-linejoin:round;stroke-miterlimit:10;" x1="329.377" y1="397.819" x2="300.19" y2="392.816"/>
				</g>
				<g>
					<defs>
						<path id="XMLID_118_" d="M317.759,365.868c0,0,7.897-1.267,3.557,10.548c-4.34,11.815-18.507,22.246-20.195,30.685
							c-1.688,8.44,0.241,8.922,0.241,8.922l-24.595-5.305c0,0,1.929-18.326,15.432-32.312
							C305.703,364.421,317.759,365.868,317.759,365.868z"/>
					</defs>
					<use xlink:href="#XMLID_118_"  style="overflow:visible;fill:#FFFFFF;"/>
					<clipPath id="XMLID_00000163790080710031975400000007432029609993225097_">
						<use xlink:href="#XMLID_118_"  style="overflow:visible;"/>
					</clipPath>
					<path id="XMLID_2_" style="opacity:0.15;clip-path:url(#XMLID_00000163790080710031975400000007432029609993225097_);" d="
						M317.759,365.868c0,0,7.897-1.267,3.557,10.548c-4.34,11.815-18.507,22.246-20.195,30.685c-1.688,8.44,0.241,8.922,0.241,8.922
						l-24.595-5.305c0,0,1.929-18.326,15.432-32.312C305.703,364.421,317.759,365.868,317.759,365.868z"/>
					
						<use xlink:href="#XMLID_118_"  style="overflow:visible;fill:none;stroke:#263238;stroke-linecap:round;stroke-linejoin:round;stroke-miterlimit:10;"/>
				</g>
				<g>
					<g>
						<defs>
							<path id="XMLID_111_" d="M269.774,423.98c0,0,4.099-0.965,8.198-6.993c4.099-6.028,13.262-25.078,20.737-35.205
								c7.475-10.128,19.049-15.915,19.049-15.915l-58.595-6.511c0,0-23.872,26.766-32.071,36.17
								c-8.199,9.404-9.163,18.085-3.376,20.255c5.787,2.17,24.113,4.34,28.936,5.064
								C257.476,421.569,265.675,424.704,269.774,423.98z"/>
						</defs>
						<use xlink:href="#XMLID_111_"  style="overflow:visible;fill:#FFFFFF;"/>
						<clipPath id="XMLID_00000073709928816628146420000003320309707579323019_">
							<use xlink:href="#XMLID_111_"  style="overflow:visible;"/>
						</clipPath>
						<path id="XMLID_7_" style="clip-path:url(#XMLID_00000073709928816628146420000003320309707579323019_);fill:#C6FF00;" d="
							M269.774,423.98c0,0,4.099-0.965,8.198-6.993c4.099-6.028,13.262-25.078,20.737-35.205
							c7.475-10.128,19.049-15.915,19.049-15.915l-58.595-6.511c0,0-23.872,26.766-32.071,36.17
							c-8.199,9.404-9.163,18.085-3.376,20.255c5.787,2.17,24.113,4.34,28.936,5.064
							C257.476,421.569,265.675,424.704,269.774,423.98z"/>
						
							<path id="XMLID_8_" style="opacity:0.5;clip-path:url(#XMLID_00000073709928816628146420000003320309707579323019_);fill:#FFFFFF;" d="
							M269.774,423.98c0,0,4.099-0.965,8.198-6.993c4.099-6.028,13.262-25.078,20.737-35.205
							c7.475-10.128,19.049-15.915,19.049-15.915l-58.595-6.511c0,0-23.872,26.766-32.071,36.17
							c-8.199,9.404-9.163,18.085-3.376,20.255c5.787,2.17,24.113,4.34,28.936,5.064
							C257.476,421.569,265.675,424.704,269.774,423.98z"/>
						
							<use xlink:href="#XMLID_111_"  style="overflow:visible;fill:none;stroke:#263238;stroke-linecap:round;stroke-linejoin:round;stroke-miterlimit:10;"/>
					</g>
					<g>
						
							<line style="fill:none;stroke:#263238;stroke-linecap:round;stroke-linejoin:round;stroke-miterlimit:10;" x1="273.404" y1="415.704" x2="220.716" y2="404.503"/>
						
							<line style="fill:none;stroke:#263238;stroke-linecap:round;stroke-linejoin:round;stroke-miterlimit:10;" x1="276.723" y1="409.066" x2="224.035" y2="397.865"/>
						
							<line style="fill:none;stroke:#263238;stroke-linecap:round;stroke-linejoin:round;stroke-miterlimit:10;" x1="280.872" y1="401.599" x2="228.183" y2="390.397"/>
						
							<line style="fill:none;stroke:#263238;stroke-linecap:round;stroke-linejoin:round;stroke-miterlimit:10;" x1="285.435" y1="392.472" x2="232.747" y2="381.27"/>
						
							<line style="fill:none;stroke:#263238;stroke-linecap:round;stroke-linejoin:round;stroke-miterlimit:10;" x1="290.414" y1="383.345" x2="237.725" y2="372.143"/>
						
							<line style="fill:none;stroke:#263238;stroke-linecap:round;stroke-linejoin:round;stroke-miterlimit:10;" x1="294.563" y1="375.877" x2="241.874" y2="364.675"/>
						
							<line style="fill:none;stroke:#263238;stroke-linecap:round;stroke-linejoin:round;stroke-miterlimit:10;" x1="300.786" y1="370.069" x2="248.097" y2="358.867"/>
					</g>
				</g>
				<g>
					<defs>
						<path id="XMLID_117_" d="M287.377,355.981c0,0,4.823,0,2.17,7.716c-2.652,7.716-18.326,27.971-23.39,41.716
							c-5.064,13.745,3.617,18.567,3.617,18.567s-1.929,2.894-30.141-3.135c-28.212-6.028-46.297-6.752-47.985-11.574
							s9.404-17.844,13.503-28.212c4.099-10.369,14.468-34.723,14.468-34.723s40.992,7.957,49.673,8.681
							C277.973,355.74,287.377,355.981,287.377,355.981z"/>
					</defs>
					<use xlink:href="#XMLID_117_"  style="overflow:visible;fill:#FFFFFF;"/>
					<clipPath id="XMLID_00000082362386982102721610000018287882758899471537_">
						<use xlink:href="#XMLID_117_"  style="overflow:visible;"/>
					</clipPath>
					<path style="opacity:0.15;clip-path:url(#XMLID_00000082362386982102721610000018287882758899471537_);" d="M287.377,355.981
						c0,0-9.404-0.241-18.085-0.965c-8.681-0.723-49.673-8.681-49.673-8.681s-10.369,24.354-14.468,34.723
						c-1.386,3.505-3.571,7.313-5.791,11.005l65.984,15.901c0.219-0.815,0.486-1.664,0.813-2.552
						c5.064-13.744,20.737-33.999,23.39-41.716C292.199,355.981,287.377,355.981,287.377,355.981z"/>
					
						<use xlink:href="#XMLID_117_"  style="overflow:visible;fill:none;stroke:#263238;stroke-linecap:round;stroke-linejoin:round;stroke-miterlimit:10;"/>
				</g>
				<g>
					<defs>
						<path id="XMLID_116_" d="M256.753,386.605c0,0,0,1.929,7.234-6.752c7.234-8.681,23.39-23.872,23.39-23.872l-74.509-16.156
							c0,0-21.22,21.943-23.872,25.319c-2.653,3.376-4.582,4.34,2.411,7.475c6.993,3.135,41.957,6.993,49.432,8.922
							C248.313,383.47,256.753,386.605,256.753,386.605z"/>
					</defs>
					<use xlink:href="#XMLID_116_"  style="overflow:visible;fill:#FFFFFF;"/>
					<clipPath id="XMLID_00000052071603381894948530000016441738601388167586_">
						<use xlink:href="#XMLID_116_"  style="overflow:visible;"/>
					</clipPath>
					<path id="XMLID_5_" style="clip-path:url(#XMLID_00000052071603381894948530000016441738601388167586_);fill:#C6FF00;" d="
						M256.753,386.605c0,0,0,1.929,7.234-6.752c7.234-8.681,23.39-23.872,23.39-23.872l-74.509-16.156
						c0,0-21.22,21.943-23.872,25.319c-2.653,3.376-4.582,4.34,2.411,7.475c6.993,3.135,41.957,6.993,49.432,8.922
						C248.313,383.47,256.753,386.605,256.753,386.605z"/>
					
						<path id="XMLID_6_" style="opacity:0.5;clip-path:url(#XMLID_00000052071603381894948530000016441738601388167586_);fill:#FFFFFF;" d="
						M256.753,386.605c0,0,0,1.929,7.234-6.752c7.234-8.681,23.39-23.872,23.39-23.872l-74.509-16.156
						c0,0-21.22,21.943-23.872,25.319c-2.653,3.376-4.582,4.34,2.411,7.475c6.993,3.135,41.957,6.993,49.432,8.922
						C248.313,383.47,256.753,386.605,256.753,386.605z"/>
					
						<use xlink:href="#XMLID_116_"  style="overflow:visible;fill:none;stroke:#263238;stroke-linecap:round;stroke-linejoin:round;stroke-miterlimit:10;"/>
				</g>
				<g id="XMLID_129_">
					<path id="XMLID_130_" style="fill:none;stroke:#263238;stroke-linecap:round;stroke-linejoin:round;stroke-miterlimit:10;" d="
						M262.387,378.917c0,0-45.031-5.281-57.54-7.783"/>
					<path id="XMLID_131_" style="fill:none;stroke:#263238;stroke-linecap:round;stroke-linejoin:round;stroke-miterlimit:10;" d="
						M266.278,371.69c0,0-26.685-2.78-37.804-5.003"/>
					<path id="XMLID_132_" style="fill:none;stroke:#263238;stroke-linecap:round;stroke-linejoin:round;stroke-miterlimit:10;" d="
						M272.115,364.185c0,0-32.8-5.837-41.139-8.061"/>
					
						<line id="XMLID_133_" style="fill:none;stroke:#263238;stroke-linecap:round;stroke-linejoin:round;stroke-miterlimit:10;" x1="277.397" y1="358.348" x2="238.203" y2="349.175"/>
				</g>
				<g>
					<defs>
						<path id="XMLID_110_" d="M285.416,263.024c0,0-1.657,5.426-4.068,23.511c-2.411,18.085-6.028,38.822-10.851,54.254
							c-4.823,15.432-14.227,37.858-14.95,40.751c-0.723,2.894,1.206,5.064,1.206,5.064s-9.404-1.447-35.929-4.34
							c-26.525-2.894-52.567-15.915-51.843-17.603c0.723-1.688,18.085-18.808,27.971-40.992
							c9.886-22.184,25.319-77.885,25.319-77.885s31.347,14.709,40.751,15.674C272.426,262.422,285.416,263.024,285.416,263.024z"/>
					</defs>
					<use xlink:href="#XMLID_110_"  style="overflow:visible;fill:#FFFFFF;"/>
					<clipPath id="XMLID_00000011753337998151589590000010541586777560890547_">
						<use xlink:href="#XMLID_110_"  style="overflow:visible;"/>
					</clipPath>
					<path style="opacity:0.15;clip-path:url(#XMLID_00000011753337998151589590000010541586777560890547_);" d="M281.348,286.535
						c2.411-18.085,4.068-23.511,4.068-23.511s-12.99-0.602-22.394-1.566c-9.404-0.965-40.751-15.674-40.751-15.674
						s-11.051,39.886-20.441,65.597l71.122,20.718C276.566,318.065,279.365,301.407,281.348,286.535z"/>
					
						<use xlink:href="#XMLID_110_"  style="overflow:visible;fill:none;stroke:#263238;stroke-linecap:round;stroke-linejoin:round;stroke-miterlimit:10;"/>
				</g>
			</g>
			<g>
				
					<path id="XMLID_92_" style="fill:#D9D9D9;stroke:#263238;stroke-linecap:round;stroke-linejoin:round;stroke-miterlimit:10;" d="
					M291.679,252.206c0,0,4.745,1.139,6.073,8.541c1.328,7.402,1.139,25.812,0.569,28.089c-0.569,2.277-16.322,4.365-23.155,5.124
					c-6.832,0.759-3.226-1.708-0.19-12.526c3.037-10.818,6.263-18.789,7.781-21.067C284.277,258.09,287.504,249.928,291.679,252.206
					z"/>
				<path style="opacity:0.15;" d="M286.538,260.666c0,0,1.25,26.488,1.772,29.417c0.522,2.929-17.367,4.253-17.367,4.253
					l10.987-30.835"/>
				
					<path id="XMLID_98_" style="fill:#D9D9D9;stroke:#263238;stroke-linecap:round;stroke-linejoin:round;stroke-miterlimit:10;" d="
					M286.935,300.034c0,0-6.453,4.555-8.73,5.694c-2.277,1.139-14.424-3.796-14.804-5.504c-0.38-1.708,2.088-1.329,5.504-0.949
					c3.416,0.38,9.3,1.328,11.767,0.38C283.139,298.705,287.504,297.756,286.935,300.034z"/>
				
					<path id="XMLID_96_" style="fill:#D9D9D9;stroke:#263238;stroke-linecap:round;stroke-linejoin:round;stroke-miterlimit:10;" d="
					M295.285,292.062c0,0-2.088,5.694-4.745,7.402c-2.657,1.708-13.475,3.416-18.22,3.037c-4.745-0.38-8.73-3.416-7.592-5.124
					c1.139-1.708-0.19-0.759,6.263-1.708c6.453-0.949,14.424-1.518,17.84-2.657C292.249,291.873,295.285,292.062,295.285,292.062z"
					/>
				
					<path id="XMLID_100_" style="fill:#D9D9D9;stroke:#263238;stroke-linecap:round;stroke-linejoin:round;stroke-miterlimit:10;" d="
					M295.855,280.865c0,0-7.212,3.796-13.096,6.453c-1.857,0.839-3.923,1.545-5.898,2.191c-1.316,0.164-4.152,0.466-7.198,0.466
					c-4.175,0-6.642-0.379-6.643,1.328c-0.001,2.6,4.545,3.978,6.476,4.529c6.712,1.914,14.623-0.429,21.383-1.537
					c1.604-0.263,2.794-0.59,4.216-1.282c3.517-1.714,4.175-5.883,3.606-8.351l-0.228-0.304"/>
				<g>
					<defs>
						<path id="XMLID_97_" d="M285.416,263.024c0,0-4.365,12.336-9.3,27.52c-4.935,15.183-7.781,30.367-7.781,30.367
							s-3.416-1.898-28.848-10.628c-25.432-8.73-57.317-19.359-57.317-19.359s23.914-28.089,29.038-41.564
							c5.124-13.475,7.781-11.008,19.549-6.453c11.767,4.555,28.089,12.906,37.579,13.855
							C277.825,257.71,285.416,261.126,285.416,263.024z"/>
					</defs>
					<use xlink:href="#XMLID_97_"  style="overflow:visible;fill:#FFFFFF;"/>
					<clipPath id="XMLID_00000062870655674169690940000014445978609520630400_">
						<use xlink:href="#XMLID_97_"  style="overflow:visible;"/>
					</clipPath>
					<path id="XMLID_3_" style="clip-path:url(#XMLID_00000062870655674169690940000014445978609520630400_);fill:#C6FF00;" d="
						M285.416,263.024c0,0-4.365,12.336-9.3,27.52c-4.935,15.183-7.781,30.367-7.781,30.367s-3.416-1.898-28.848-10.628
						c-25.432-8.73-57.317-19.359-57.317-19.359s23.914-28.089,29.038-41.564c5.124-13.475,7.781-11.008,19.549-6.453
						c11.767,4.555,28.089,12.906,37.579,13.855C277.825,257.71,285.416,261.126,285.416,263.024z"/>
					
						<path id="XMLID_4_" style="opacity:0.5;clip-path:url(#XMLID_00000062870655674169690940000014445978609520630400_);fill:#FFFFFF;" d="
						M285.416,263.024c0,0-4.365,12.336-9.3,27.52c-4.935,15.183-7.781,30.367-7.781,30.367s-3.416-1.898-28.848-10.628
						c-25.432-8.73-57.317-19.359-57.317-19.359s23.914-28.089,29.038-41.564c5.124-13.475,7.781-11.008,19.549-6.453
						c11.767,4.555,28.089,12.906,37.579,13.855C277.825,257.71,285.416,261.126,285.416,263.024z"/>
					
						<use xlink:href="#XMLID_97_"  style="overflow:visible;fill:none;stroke:#263238;stroke-linecap:round;stroke-linejoin:round;stroke-miterlimit:10;"/>
				</g>
				<g id="XMLID_124_">
					<g id="XMLID_49_">
						
							<line id="XMLID_51_" style="fill:none;stroke:#263238;stroke-linecap:round;stroke-linejoin:round;stroke-miterlimit:10;" x1="266.834" y1="303.31" x2="203.179" y2="281.35"/>
						
							<line id="XMLID_95_" style="fill:none;stroke:#263238;stroke-linecap:round;stroke-linejoin:round;stroke-miterlimit:10;" x1="269.496" y1="295.831" x2="208.183" y2="274.679"/>
						
							<line id="XMLID_120_" style="fill:none;stroke:#263238;stroke-linecap:round;stroke-linejoin:round;stroke-miterlimit:10;" x1="272.115" y1="288.3" x2="212.63" y2="267.73"/>
						
							<line id="XMLID_121_" style="fill:none;stroke:#263238;stroke-linecap:round;stroke-linejoin:round;stroke-miterlimit:10;" x1="274.339" y1="279.127" x2="218.745" y2="260.225"/>
						
							<line id="XMLID_122_" style="fill:none;stroke:#263238;stroke-linecap:round;stroke-linejoin:round;stroke-miterlimit:10;" x1="276.007" y1="270.51" x2="224.305" y2="252.164"/>
					</g>
					
						<ellipse id="XMLID_123_" style="fill:none;stroke:#263238;stroke-linecap:round;stroke-linejoin:round;stroke-miterlimit:10;" cx="199.844" cy="280.378" rx="2.502" ry="1.807"/>
					
						<ellipse id="XMLID_125_" style="fill:none;stroke:#263238;stroke-linecap:round;stroke-linejoin:round;stroke-miterlimit:10;" cx="205.125" cy="273.706" rx="2.502" ry="1.807"/>
					
						<ellipse id="XMLID_126_" style="fill:none;stroke:#263238;stroke-linecap:round;stroke-linejoin:round;stroke-miterlimit:10;" cx="209.294" cy="267.452" rx="2.502" ry="1.807"/>
					
						<ellipse id="XMLID_127_" style="fill:none;stroke:#263238;stroke-linecap:round;stroke-linejoin:round;stroke-miterlimit:10;" cx="213.742" cy="258.835" rx="2.502" ry="1.807"/>
					<path id="XMLID_128_" style="fill:none;stroke:#263238;stroke-linecap:round;stroke-linejoin:round;stroke-miterlimit:10;" d="
						M222.081,250.496c0-0.998-1.12-1.807-2.502-1.807c-1.382,0-2.502,0.809-2.502,1.807c0,0.998,1.12,1.807,2.502,1.807
						C220.961,252.303,222.081,251.494,222.081,250.496z"/>
				</g>
				<path id="XMLID_1_" style="fill:#D9D9D9;stroke:#263238;stroke-linecap:round;stroke-linejoin:round;stroke-miterlimit:10;" d="
					M290.92,258.09c0,0-5.884,10.249-9.679,11.767c-3.796,1.518-14.804-0.19-14.045-2.657c0.759-2.467,6.263-3.226,9.869-7.971
					c3.606-4.745,6.833-11.008,10.249-10.059c3.416,0.949,5.884,4.935,6.073,6.263"/>
			</g>
		</g>
		<g>
			<g>
				<defs>
					<path id="XMLID_101_" d="M193.367,189.195c0,0,1.139,19.359,1.139,20.118c0,0.759-31.316,33.403-38.528,40.995
						s-7.402,13.855-5.694,18.6c1.708,4.745,7.592,11.577,12.906,12.336c5.314,0.759,11.198-4.555,16.512-16.322
						c5.314-11.767,24.293-47.258,26.381-51.054c2.088-3.796,7.022-7.212,7.022-7.212s5.124-2.657,7.402-6.453
						c2.277-3.796,6.643-11.387,11.387-14.994c4.745-3.606,7.022-4.555,4.935-5.694c-2.088-1.139-8.73,1.328-10.628,2.657
						c-1.898,1.328-6.073,4.745-6.073,4.745s-3.606-5.314-3.796-9.869c-0.19-4.555,0.953-11.058-1.704-9.73
						c-2.657,1.329-7.073,11.128-12.72,16.372C196.594,188.626,193.367,186.348,193.367,189.195z"/>
				</defs>
				<use xlink:href="#XMLID_101_"  style="overflow:visible;fill:#D9D9D9;"/>
				<clipPath id="XMLID_00000126289462018253053700000009745174391948723352_">
					<use xlink:href="#XMLID_101_"  style="overflow:visible;"/>
				</clipPath>
				<path style="opacity:0.15;clip-path:url(#XMLID_00000126289462018253053700000009745174391948723352_);" d="M236.829,179.516
					c-2.088-1.139-8.73,1.329-10.628,2.657c-1.898,1.329-6.073,4.745-6.073,4.745s-3.606-5.314-3.796-9.869
					c-0.19-4.555,0.953-11.058-1.704-9.729c-2.657,1.329-7.073,11.128-12.72,16.372c-2.052,1.905-3.788,2.731-5.151,3.196
					l-0.95,3.957c0,0,3.899,2.481,3.899,5.671s4.962,4.253,5.316,7.443c0.354,3.19-2.126,6.734-3.899,8.861
					c-1.772,2.127-30.48,51.746-37.923,57.771c-3.106,2.514-7.198,2.742-10.914,2.157c2.626,3.954,6.925,7.929,10.905,8.498
					c5.314,0.759,11.198-4.555,16.512-16.322c5.314-11.767,24.293-47.258,26.381-51.054c2.088-3.796,7.022-7.212,7.022-7.212
					s5.124-2.657,7.402-6.453c2.277-3.796,6.643-11.387,11.387-14.994C236.64,181.603,238.917,180.654,236.829,179.516z"/>
				
					<use xlink:href="#XMLID_101_"  style="overflow:visible;fill:none;stroke:#263238;stroke-linecap:round;stroke-linejoin:round;stroke-miterlimit:10;"/>
			</g>
			<g id="XMLID_109_">
				<g id="XMLID_108_">
					
						<path id="XMLID_104_" style="fill:#C6FF00;stroke:#263238;stroke-linecap:round;stroke-linejoin:round;stroke-miterlimit:10;" d="
						M251.823,168.318l0.083,0.148c0.59,1.057,0.212,2.393-0.846,2.983l-36.081,20.02l-6.984,1.508l4.763-5.485l36.081-20.02
						C249.897,166.882,251.233,167.261,251.823,168.318z"/>
					
						<polygon id="XMLID_112_" style="fill:#FFFFFF;stroke:#263238;stroke-linecap:round;stroke-linejoin:round;stroke-miterlimit:10;" points="
						214.979,191.469 215.241,191.323 213.021,187.346 212.758,187.492 207.995,192.977 					"/>
					
						<path id="XMLID_113_" style="fill:#FFFFFF;stroke:#263238;stroke-linecap:round;stroke-linejoin:round;stroke-miterlimit:10;" d="
						M247.34,173.526l3.72-2.077c1.057-0.59,1.436-1.926,0.846-2.983l-0.083-0.148c-0.59-1.057-1.926-1.436-2.983-0.846l-3.72,2.077
						L247.34,173.526z"/>
					
						<rect id="XMLID_114_" x="244.594" y="169.537" transform="matrix(0.8732 -0.4874 0.4874 0.8732 -52.5791 141.5658)" style="fill:#FFFFFF;stroke:#263238;stroke-linecap:round;stroke-linejoin:round;stroke-miterlimit:10;" width="2.277" height="4.555"/>
				</g>
				
					<polygon id="XMLID_115_" style="fill:#FFFFFF;stroke:#263238;stroke-linecap:round;stroke-linejoin:round;stroke-miterlimit:10;" points="
					207.995,192.977 211.293,192.265 210.244,190.387 				"/>
			</g>
			<path id="XMLID_107_" style="fill:none;stroke:#263238;stroke-linecap:round;stroke-linejoin:round;stroke-miterlimit:10;" d="
				M201.908,193.75c0,0-0.569,4.555-4.175,4.745"/>
			
				<path id="XMLID_103_" style="fill:#D9D9D9;stroke:#263238;stroke-linecap:round;stroke-linejoin:round;stroke-miterlimit:10;" d="
				M212.149,171.023c0,0,6.643,10.628,8.92,12.716c2.277,2.088,5.124,1.708,5.694-0.19c0.569-1.898-3.226-5.883-4.745-11.008
				c-1.518-5.124-2.088-6.643-5.124-5.884C213.857,167.417,212.339,169.125,212.149,171.023z"/>
			
				<path id="XMLID_102_" style="fill:#D9D9D9;stroke:#263238;stroke-linecap:round;stroke-linejoin:round;stroke-miterlimit:10;" d="
				M222.785,184.64c0,0-11.957-6.073-14.614-9.11c-2.657-3.037-5.694,0.949-6.263,3.037c-0.569,2.088,8.73,5.884,13.096,7.402
				c4.365,1.518,7.022,2.088,8.351,0.569C224.683,185.02,222.785,184.64,222.785,184.64z"/>
			
				<path id="XMLID_105_" style="fill:#D9D9D9;stroke:#263238;stroke-linecap:round;stroke-linejoin:round;stroke-miterlimit:10;" d="
				M202.667,180.275c0,0-3.986,1.329-4.745,3.037c-0.759,1.708,1.329,2.847,5.124,5.124c3.796,2.277,9.869,3.037,11.388,2.277
				c1.518-0.759,1.708-2.277-0.38-3.037C211.967,186.918,204.375,181.414,202.667,180.275z"/>
			
				<path id="XMLID_106_" style="fill:#D9D9D9;stroke:#263238;stroke-linecap:round;stroke-linejoin:round;stroke-miterlimit:10;" d="
				M199.251,186.158c0,0-4.365-1.139-5.694,1.328c-1.329,2.467,0.19,3.986,4.745,5.314c4.555,1.329,11.387,2.277,11.577-0.19
				s-3.606-2.847-6.833-4.175C199.82,187.107,199.251,186.158,199.251,186.158z"/>
		</g>
	</g>
</g>
<g id="Plants">
	<g>
		<path style="fill:#C6FF00;" d="M92.47,347.575c0,0-2.185-7.1-8.557-9.649c-4.429-1.772-9.527-1.308-14.115-0.51
			c-8.55,1.487-16.01,4.886-24.116,7.792c0,0,3.459-1.274,17.659,5.644c5.23,2.548,11.211,4.525,17.192,4.391
			C85.338,355.135,92.699,353.767,92.47,347.575z"/>
		<path style="fill:#C6FF00;" d="M93.24,326.716c0,0-0.041-7.428-5.405-11.709c-3.728-2.975-8.743-4.004-13.365-4.565
			c-8.615-1.046-16.739,0.053-25.339,0.493c0,0,3.68-0.221,15.276,10.504c4.271,3.95,9.426,7.571,15.19,9.17
			C84.228,331.894,91.671,332.711,93.24,326.716z"/>
		<path style="fill:#C6FF00;" d="M107.92,354.299c0,0-5.794-4.648-5.814-11.511c-0.014-4.77,2.297-9.338,4.73-13.308
			c4.535-7.399,10.445-13.081,16.135-19.544c0,0-2.46,2.745-1.265,18.496c0.44,5.801,0.073,12.09-2.257,17.6
			C117.577,350.458,113.591,356.796,107.92,354.299z"/>
		<path style="fill:#C6FF00;" d="M128.439,365.707c0,0-0.819-7.383,4.014-12.256c3.359-3.386,8.221-4.988,12.748-6.081
			c8.436-2.035,16.633-1.883,25.226-2.44c0,0-3.68,0.206-13.959,12.2c-3.786,4.418-8.487,8.61-14.028,10.865
			C137.989,369.809,130.691,371.48,128.439,365.707z"/>
		<path style="fill:#C6FF00;" d="M127.094,339.39c0,0-7.359-1.012-10.901-6.89c-2.462-4.085-2.826-9.191-2.777-13.848
			c0.09-8.678,2.243-16.589,3.805-25.057c0,0-0.7,3.619,8.415,16.519c3.358,4.751,6.272,10.336,7.104,16.26
			C133.407,331.134,133.242,338.619,127.094,339.39z"/>
		<path style="fill:#C6FF00;" d="M148.274,326.174c0,0,5.293,5.212,12.111,4.431c4.739-0.543,9.006-3.371,12.665-6.251
			c6.819-5.368,11.772-11.901,17.527-18.307c0,0-2.439,2.764-18.222,3.416c-5.813,0.24-12.016,1.339-17.216,4.296
			C150.962,316.134,145.132,320.832,148.274,326.174z"/>
		<path style="fill:#C6FF00;" d="M142.145,321.021c0,0,7.391,0.743,12.214-4.14c3.352-3.394,4.903-8.272,5.949-12.81
			c1.948-8.457,1.712-16.652,2.18-25.25c0,0-0.168,3.682-12.056,14.084c-4.379,3.831-8.522,8.576-10.72,14.139
			C137.945,311.514,136.349,318.828,142.145,321.021z"/>
		<polyline style="fill:none;stroke:#263238;stroke-linecap:round;stroke-linejoin:round;stroke-miterlimit:10;" points="
			115.757,392.956 103,361.555 88.281,325.248 		"/>
		<polyline style="fill:none;stroke:#263238;stroke-linecap:round;stroke-linejoin:round;stroke-miterlimit:10;" points="
			118.7,387.559 131.457,343.892 145.195,316.907 		"/>
		
			<line style="fill:none;stroke:#263238;stroke-linecap:round;stroke-linejoin:round;stroke-miterlimit:10;" x1="123.607" y1="370.387" x2="136.363" y2="363.027"/>
		
			<line style="fill:none;stroke:#263238;stroke-linecap:round;stroke-linejoin:round;stroke-miterlimit:10;" x1="131.457" y1="343.892" x2="125.079" y2="329.664"/>
		
			<line style="fill:none;stroke:#263238;stroke-linecap:round;stroke-linejoin:round;stroke-miterlimit:10;" x1="139.439" y1="329.734" x2="155.008" y2="322.794"/>
		
			<line style="fill:none;stroke:#263238;stroke-linecap:round;stroke-linejoin:round;stroke-miterlimit:10;" x1="105.453" y1="367.443" x2="110.85" y2="345.854"/>
		
			<line style="fill:none;stroke:#263238;stroke-linecap:round;stroke-linejoin:round;stroke-miterlimit:10;" x1="98.296" y1="351.034" x2="85.828" y2="344.383"/>
		<polygon style="fill:#263238;stroke:#263238;stroke-linecap:round;stroke-linejoin:round;stroke-miterlimit:10;" points="
			128.489,408.656 105.478,408.656 100.547,382.653 133.42,382.653 		"/>
	</g>
</g>
</svg>
