<svg xmlns="http://www.w3.org/2000/svg"  viewBox="0 0 100 100" width="500px" height="500px"><path fill="#c7ede6" d="M88.494,56.039c0.299-0.614,0.563-1.259,0.792-1.935c2.622-7.739-1.343-17.008-9.693-19.245 c-0.903-11.338-8.87-19.115-17.867-20.442c-10.298-1.519-19.733,5.023-22.872,15.422c-3.784-1.34-7.471-1.177-10.945,0.853 c-1.576,0.729-3.018,1.805-4.312,3.22c-1.9,2.077-3.134,4.7-3.637,7.465c-0.745,0.117-1.477,0.235-2.167,0.482 c-4.023,1.443-6.562,4.413-7.258,8.886c-0.434,2.785,0.441,5.564,0.929,6.687c1.927,4.436,6.396,6.952,10.936,6.286 c0.226-0.033,0.554,0.069,0.749,0.232c0.24,7.091,3.683,13.362,8.848,16.944c8.287,5.748,18.949,3.977,25.675-3.905 c2.882,2.948,6.312,4.38,10.342,3.86c4.006-0.517,7.117-2.728,9.387-6.322c1.048,0.282,2.043,0.689,3.071,0.801 c4.025,0.44,7.294-1.161,9.692-4.78c0.918-1.385,1.786-3.181,1.786-6.328C91.95,60.975,90.662,58.02,88.494,56.039z"/><path fill="#fdfcef" d="M77.024,48.447c0,0,11.643,0,11.714,0c2.689,0,4.868-2.18,4.868-4.869 c0-2.346-1.659-4.303-3.868-4.765c0.025-0.205,0.043-0.413,0.043-0.625c0-2.785-2.257-5.042-5.042-5.042 c-1.644,0-3.1,0.791-4.02,2.008c-0.235-3.1-3.004-5.491-6.244-5.095c-2.369,0.29-4.328,2.121-4.764,4.467 c-0.14,0.752-0.125,1.483,0.014,2.168c-0.635-0.684-1.539-1.115-2.546-1.115c-1.843,0-3.347,1.435-3.466,3.248 c-0.837-0.185-1.747-0.173-2.706,0.187c-1.832,0.688-3.137,2.413-3.214,4.369c-0.108,2.778,2.111,5.064,4.864,5.064 c0.209,0,0.944,0,1.114,0H73.88"/><path fill="#472b29" d="M88.738,48.947H77.024c-0.276,0-0.5-0.224-0.5-0.5s0.224-0.5,0.5-0.5h11.714 c2.409,0,4.369-1.96,4.369-4.369c0-2.057-1.459-3.855-3.47-4.275c-0.255-0.053-0.426-0.292-0.394-0.551 c0.023-0.185,0.039-0.373,0.039-0.564c0-2.505-2.038-4.542-4.542-4.542c-1.432,0-2.752,0.66-3.622,1.81 c-0.125,0.167-0.339,0.241-0.54,0.178c-0.199-0.059-0.342-0.234-0.357-0.441c-0.104-1.372-0.775-2.659-1.842-3.533 c-1.078-0.883-2.443-1.275-3.843-1.104c-2.156,0.264-3.938,1.934-4.333,4.062c-0.124,0.665-0.119,1.331,0.012,1.978 c0.045,0.219-0.062,0.442-0.261,0.544c-0.199,0.103-0.443,0.06-0.595-0.104c-0.572-0.616-1.346-0.955-2.18-0.955 c-1.561,0-2.864,1.221-2.967,2.78c-0.01,0.146-0.083,0.28-0.199,0.367c-0.117,0.087-0.267,0.119-0.408,0.088 c-0.837-0.185-1.629-0.131-2.422,0.167c-1.661,0.623-2.822,2.199-2.89,3.92c-0.047,1.202,0.385,2.34,1.216,3.204 c0.832,0.864,1.95,1.34,3.148,1.34H73.88c0.276,0,0.5,0.224,0.5,0.5s-0.224,0.5-0.5,0.5H62.658c-1.474,0-2.848-0.585-3.869-1.647 s-1.552-2.46-1.495-3.936c0.083-2.118,1.504-4.054,3.537-4.817c0.798-0.298,1.623-0.398,2.457-0.298 c0.376-1.815,1.991-3.168,3.891-3.168c0.681,0,1.347,0.178,1.934,0.506c0-0.382,0.035-0.767,0.106-1.151 c0.475-2.553,2.611-4.556,5.195-4.872c1.672-0.208,3.307,0.265,4.598,1.323c0.999,0.819,1.708,1.941,2.03,3.178 c1.008-0.911,2.309-1.417,3.697-1.417c3.056,0,5.542,2.486,5.542,5.542c0,0.083-0.002,0.165-0.007,0.246 c2.245,0.67,3.832,2.767,3.832,5.144C94.106,46.54,91.698,48.947,88.738,48.947z"/><path fill="#fdfcef" d="M72.775,38.951c-1.801-0.118-3.351,1.126-3.462,2.778c-0.014,0.205-0.005,0.407,0.025,0.604 c-0.347-0.392-0.862-0.659-1.452-0.697c-1.08-0.071-2.013,0.643-2.149,1.613c-0.197-0.054-0.401-0.09-0.614-0.104 c-1.576-0.103-2.932,0.985-3.029,2.431"/><path fill="#472b29" d="M62.095,45.825c-0.006,0-0.012,0-0.017,0c-0.138-0.009-0.242-0.128-0.233-0.266 c0.106-1.582,1.575-2.783,3.295-2.664c0.134,0.009,0.27,0.026,0.406,0.052c0.274-0.963,1.261-1.628,2.356-1.562 c0.423,0.028,0.82,0.159,1.158,0.38c0.001-0.018,0.002-0.036,0.003-0.053c0.12-1.787,1.785-3.13,3.728-3.011 c0.138,0.009,0.242,0.128,0.233,0.266c-0.009,0.137-0.116,0.241-0.266,0.233c-1.659-0.116-3.095,1.033-3.196,2.545 c-0.012,0.183-0.004,0.368,0.023,0.549c0.017,0.11-0.041,0.217-0.141,0.264c-0.099,0.046-0.219,0.023-0.293-0.061 c-0.322-0.363-0.777-0.581-1.281-0.614c-0.935-0.065-1.768,0.553-1.885,1.398c-0.01,0.071-0.05,0.135-0.11,0.174 s-0.135,0.05-0.204,0.032c-0.188-0.052-0.378-0.084-0.564-0.096c-1.427-0.088-2.675,0.892-2.764,2.198 C62.335,45.723,62.225,45.825,62.095,45.825z"/><path fill="#fdfcef" d="M90.709,39.384c-1.692-0.798-3.649-0.233-4.371,1.262c-0.09,0.186-0.156,0.377-0.2,0.571"/><path fill="#472b29" d="M86.138,41.467c-0.018,0-0.037-0.002-0.056-0.006c-0.135-0.031-0.219-0.165-0.188-0.299 c0.05-0.217,0.123-0.427,0.219-0.624c0.781-1.615,2.891-2.232,4.702-1.379c0.125,0.059,0.179,0.208,0.12,0.333 s-0.209,0.178-0.333,0.12c-1.567-0.738-3.378-0.225-4.039,1.145c-0.079,0.164-0.14,0.338-0.182,0.518 C86.355,41.389,86.252,41.467,86.138,41.467z"/><path fill="#fff" d="M21.823 47h-9.99c-.276 0-.5-.224-.5-.5s.224-.5.5-.5h9.989c.276 0 .5.224.5.5S22.099 47 21.823 47zM24.692 47h-1.439c-.276 0-.5-.224-.5-.5s.224-.5.5-.5h1.439c.276 0 .5.224.5.5S24.968 47 24.692 47zM28.73 47h-2.536c-.276 0-.5-.224-.5-.5s.224-.5.5-.5h2.536c.276 0 .5.224.5.5S29.006 47 28.73 47zM28.73 49h-9.577c-.276 0-.5-.224-.5-.5s.224-.5.5-.5h9.577c.276 0 .5.224.5.5S29.006 49 28.73 49zM17.429 49h-.578c-.276 0-.5-.224-.5-.5s.224-.5.5-.5h.578c.276 0 .5.224.5.5S17.705 49 17.429 49zM15.061 49h-1.45c-.276 0-.5-.224-.5-.5s.224-.5.5-.5h1.45c.276 0 .5.224.5.5S15.338 49 15.061 49z"/><g><path fill="#fff" d="M24.16,45h-5.007c-0.276,0-0.5-0.224-0.5-0.5s0.224-0.5,0.5-0.5h5.007c0.276,0,0.5,0.224,0.5,0.5 S24.436,45,24.16,45z"/></g><g><path fill="#fff" d="M24.16,43h-1.252c-0.276,0-0.5-0.224-0.5-0.5s0.224-0.5,0.5-0.5h1.252c0.276,0,0.5,0.224,0.5,0.5 S24.436,43,24.16,43z"/></g><g><path fill="#fff" d="M20.905,51h-1.751c-0.276,0-0.5-0.224-0.5-0.5s0.224-0.5,0.5-0.5h1.751c0.276,0,0.5,0.224,0.5,0.5 S21.181,51,20.905,51z"/></g><g><path fill="#fff" d="M68.408 25h-9.989c-.276 0-.5-.224-.5-.5s.224-.5.5-.5h9.989c.276 0 .5.224.5.5S68.684 25 68.408 25zM71.277 25h-1.44c-.276 0-.5-.224-.5-.5s.224-.5.5-.5h1.44c.276 0 .5.224.5.5S71.553 25 71.277 25zM75.315 25h-2.536c-.276 0-.5-.224-.5-.5s.224-.5.5-.5h2.536c.276 0 .5.224.5.5S75.591 25 75.315 25zM73.297 21H63.72c-.276 0-.5-.224-.5-.5s.224-.5.5-.5h9.577c.276 0 .5.224.5.5S73.574 21 73.297 21zM61.996 21h-.578c-.276 0-.5-.224-.5-.5s.224-.5.5-.5h.578c.276 0 .5.224.5.5S62.272 21 61.996 21zM59.629 21h-1.45c-.276 0-.5-.224-.5-.5s.224-.5.5-.5h1.45c.276 0 .5.224.5.5S59.905 21 59.629 21z"/><g><path fill="#fff" d="M70.744,23h-5.007c-0.276,0-0.5-0.224-0.5-0.5s0.224-0.5,0.5-0.5h5.007c0.276,0,0.5,0.224,0.5,0.5 S71.021,23,70.744,23z"/></g><g><path fill="#fff" d="M70.744,21h-1.252c-0.276,0-0.5-0.224-0.5-0.5s0.224-0.5,0.5-0.5h1.252c0.276,0,0.5,0.224,0.5,0.5 S71.021,21,70.744,21z"/></g><g><path fill="#fff" d="M64.288,23h-1.751c-0.276,0-0.5-0.224-0.5-0.5s0.224-0.5,0.5-0.5h1.751c0.276,0,0.5,0.224,0.5,0.5 S64.565,23,64.288,23z"/></g></g><g><path fill="#cdcbbd" d="M34.443,69.3c-0.485,0-1.086-0.136-1.427-1.199c-0.265-0.826-0.265-1.847-0.264-2.522L32.7,39.251 v-3.649c0-1.6,1.278-2.901,2.849-2.901h17.179c1.605,0,2.911,1.375,2.911,3.066v1.393c0,1.205,0.951,2.187,2.119,2.187h15.634 c0.396,0,0.718,0.353,0.718,0.787v22.5c0,0.305,0.01,0.681,0.021,1.102c0.044,1.634,0.114,4.276-0.436,5.565H34.443z"/><path fill="#472b29" d="M52.728,33.4c1.219,0,2.211,1.061,2.211,2.366v1.393c0,1.592,1.264,2.887,2.819,2.887l15.617-0.004 c0.007,0.004,0.035,0.033,0.035,0.091v22.501c0,0.31,0.01,0.692,0.021,1.12c0.033,1.228,0.096,3.56-0.236,4.847H34.443 c-0.261,0-0.531,0-0.76-0.714c-0.231-0.721-0.231-1.676-0.23-2.307l0-0.088L33.4,39.252v-3.651c0-1.214,0.964-2.202,2.149-2.202 H52.728 M52.728,32H35.549C33.597,32,32,33.621,32,35.602v3.651l0.052,26.242C32.052,66.853,32,70,34.443,70h39.672 c1.027-1.571,0.695-5.631,0.695-7.367V40.132c0-0.821-0.635-1.487-1.419-1.487H57.757c-0.783,0-1.419-0.666-1.419-1.487v-1.393 C56.339,33.695,54.714,32,52.728,32L52.728,32z"/></g><g><path fill="#fdfcee" d="M34.745,69.3c-0.045-0.013-0.109-0.086-0.16-0.17c1.146-0.366,1.247-2.478,1.247-4.981v-20.96 c0-0.27,0.203-0.488,0.453-0.488h39.563c0.25,0,0.453,0.219,0.453,0.488v22.77c0,1.843-1.444,3.342-3.221,3.342H34.745z"/><path fill="#472b29" d="M75.6,43.4v22.558c0,1.457-1.131,2.642-2.52,2.642H36.03c0.501-1.162,0.501-2.919,0.501-4.451V43.4 H75.6 M75.847,42H36.284c-0.637,0-1.153,0.532-1.153,1.189v20.96c0,2.683-0.178,4.337-0.927,4.337 c-0.809,0-0.268,1.514,0.54,1.514H73.08c2.165,0,3.92-1.81,3.92-4.042V43.189C77,42.532,76.484,42,75.847,42L75.847,42z"/></g><g><path fill="#472b29" d="M45.5,37h-10c-0.276,0-0.5-0.224-0.5-0.5s0.224-0.5,0.5-0.5h10c0.276,0,0.5,0.224,0.5,0.5 S45.776,37,45.5,37z"/></g><g><path fill="#472b29" d="M52.5,37h-4c-0.276,0-0.5-0.224-0.5-0.5s0.224-0.5,0.5-0.5h4c0.276,0,0.5,0.224,0.5,0.5 S52.776,37,52.5,37z"/></g><g><path fill="#472b29" d="M53.5,52h-13c-0.276,0-0.5-0.224-0.5-0.5v-5c0-0.276,0.224-0.5,0.5-0.5h13 c0.276,0,0.5,0.224,0.5,0.5v5C54,51.776,53.776,52,53.5,52z M41,51h12v-4H41V51z"/></g><g><path fill="#fdfcef" d="M38.986,75.493c1.876,0,3.502,0,3.526,0c2.101,0,3.805-1.667,3.805-3.724 c0-1.794-1.297-3.292-3.023-3.645c0.02-0.157,0.033-0.316,0.033-0.478c0-2.13-1.764-3.857-3.941-3.857 c-1.285,0-2.423,0.605-3.142,1.536c-0.184-2.371-2.348-4.2-4.88-3.897c-1.851,0.222-3.383,1.622-3.723,3.417 c-0.109,0.576-0.098,1.134,0.011,1.659c-0.496-0.523-1.203-0.853-1.99-0.853c-1.44,0-2.616,1.097-2.709,2.484 c-0.654-0.142-1.365-0.132-2.115,0.143c-1.432,0.526-2.452,1.846-2.512,3.342c-0.085,2.125,1.65,3.873,3.802,3.873 c0.163,0,0.738,0,0.87,0h7.901 M32.535,75.493h0.358"/><path fill="#472b29" d="M42.512,75.993h-3.526c-0.276,0-0.5-0.224-0.5-0.5s0.224-0.5,0.5-0.5h3.526 c1.822,0,3.305-1.446,3.305-3.224c0-1.517-1.103-2.844-2.623-3.155c-0.256-0.052-0.429-0.293-0.396-0.553 c0.018-0.137,0.03-0.274,0.03-0.416c0-1.851-1.543-3.357-3.441-3.357c-1.087,0-2.088,0.489-2.747,1.342 c-0.126,0.164-0.34,0.232-0.539,0.173c-0.198-0.059-0.339-0.234-0.355-0.44c-0.079-1.014-0.563-1.934-1.363-2.591 c-0.825-0.677-1.878-0.982-2.959-0.848c-1.639,0.196-2.992,1.436-3.292,3.014c-0.094,0.492-0.09,0.984,0.009,1.464 c0.045,0.219-0.06,0.441-0.258,0.545c-0.197,0.102-0.44,0.064-0.594-0.1c-0.426-0.449-1.003-0.696-1.627-0.696 c-1.163,0-2.134,0.886-2.21,2.018c-0.01,0.145-0.082,0.278-0.198,0.366c-0.116,0.087-0.264,0.12-0.407,0.089 c-0.634-0.138-1.234-0.097-1.836,0.124c-1.256,0.461-2.134,1.624-2.185,2.893c-0.035,0.871,0.281,1.699,0.891,2.333 c0.632,0.658,1.488,1.02,2.412,1.02H30.9c0.276,0,0.5,0.224,0.5,0.5s-0.224,0.5-0.5,0.5h-8.771 c-1.181,0-2.323-0.484-3.133-1.327c-0.799-0.832-1.214-1.92-1.168-3.066c0.066-1.668,1.207-3.192,2.839-3.791 c0.607-0.224,1.236-0.304,1.872-0.244c0.344-1.39,1.624-2.414,3.124-2.414c0.49,0,0.971,0.112,1.406,0.32 c0.009-0.24,0.037-0.48,0.082-0.72c0.379-2.001,2.088-3.573,4.155-3.82c1.359-0.161,2.675,0.217,3.712,1.068 c0.744,0.61,1.272,1.402,1.54,2.29c0.788-0.645,1.778-1.001,2.83-1.001c2.449,0,4.441,1.955,4.441,4.357 c0,0.034,0,0.067-0.001,0.101c1.757,0.553,2.991,2.18,2.991,4.022C46.816,74.098,44.885,75.993,42.512,75.993z M32.893,75.993 h-0.358c-0.276,0-0.5-0.224-0.5-0.5s0.224-0.5,0.5-0.5h0.358c0.276,0,0.5,0.224,0.5,0.5S33.169,75.993,32.893,75.993z"/><g><path fill="#472b29" d="M40.811,70.213c-0.018,0-0.036-0.002-0.055-0.006c-0.135-0.03-0.219-0.164-0.189-0.299 c0.037-0.165,0.094-0.325,0.169-0.477c0.602-1.219,2.263-1.671,3.708-1.003c0.125,0.058,0.18,0.207,0.122,0.332 s-0.207,0.18-0.332,0.122c-1.197-0.554-2.566-0.208-3.05,0.771c-0.057,0.116-0.101,0.239-0.129,0.365 C41.029,70.134,40.926,70.213,40.811,70.213z"/></g><g><path fill="#472b29" d="M35.673,75.993H34.57c-0.276,0-0.5-0.224-0.5-0.5s0.224-0.5,0.5-0.5h1.103 c0.276,0,0.5,0.224,0.5,0.5S35.95,75.993,35.673,75.993z"/></g></g></svg>